<svg width="246" height="24" viewBox="0 0 246 24" fill="none" xmlns="http://www.w3.org/2000/svg">
<g clip-path="url(#clip0_1_7828)">
<path fill-rule="evenodd" clip-rule="evenodd" d="M9.48773 3.75137L3.95141 5.64167C3.3316 5.85251 2.91663 6.42116 2.91663 7.05994V12.5914C2.91663 14.2762 3.54405 15.8991 4.67423 17.1633C5.20659 17.76 5.8849 18.2564 6.70772 18.6882L9.70548 20.2598C9.89252 20.3578 10.1178 20.3578 10.3048 20.2596L13.2973 18.689C14.1179 18.2579 14.7963 17.7605 15.3287 17.1636C16.4571 15.9003 17.0833 14.2784 17.0833 12.5947V7.05994C17.0833 6.42116 16.6683 5.85251 16.0478 5.64143L10.513 3.75164C10.1816 3.63833 9.81972 3.63833 9.48773 3.75137ZM10.0942 4.90789L15.6302 6.7981C15.7454 6.83727 15.8217 6.94187 15.8217 7.05994V12.5947C15.8217 13.9826 15.3056 15.3193 14.3756 16.3605L14.2104 16.5356C13.8102 16.9371 13.3059 17.291 12.6974 17.6107L10.0042 19.0235L7.30703 17.6096C6.60937 17.2435 6.05033 16.8344 5.62709 16.36C4.69535 15.3177 4.1782 13.9801 4.1782 12.5914V7.05994C4.1782 6.94187 4.25454 6.83727 4.36898 6.79834L9.90547 4.90798C9.96657 4.88717 10.0336 4.88717 10.0942 4.90789ZM13.1293 9.70063C12.883 9.46128 12.4836 9.46128 12.2372 9.70063L9.40442 12.4526L8.25972 11.3392L8.18899 11.2798C7.9421 11.1017 7.59165 11.1214 7.36765 11.3389C7.12125 11.5782 7.12114 11.9663 7.36742 12.2057L8.95868 13.7526L9.02943 13.812C9.27637 13.9901 9.62689 13.9703 9.85087 13.7527L13.1293 10.5674L13.1904 10.4986C13.3736 10.2587 13.3532 9.91821 13.1293 9.70063Z" fill="#00C5D7"/>
<path d="M29.2266 17V5.625H31.3281V10.6094L35.7422 5.625H38.0781L31.3281 13.0938V17H29.2266ZM36.0312 17L31.9141 11.3828L33.2578 9.88281L38.5781 17H36.0312ZM39.3828 17V8.8125H41.4219V17H39.3828ZM39.1953 6.45312C39.1953 6.13542 39.2995 5.86979 39.5078 5.65625C39.7161 5.44271 40.0156 5.33594 40.4062 5.33594C40.7969 5.33594 41.0964 5.44271 41.3047 5.65625C41.513 5.86979 41.6172 6.13542 41.6172 6.45312C41.6172 6.77083 41.5104 7.03906 41.2969 7.25781C41.0885 7.47135 40.7917 7.57812 40.4062 7.57812C40.0156 7.57812 39.7161 7.47135 39.5078 7.25781C39.2995 7.03906 39.1953 6.77083 39.1953 6.45312ZM43.5625 17V8.8125H45.4766L45.5312 9.78125H45.5703C45.8099 9.44792 46.1406 9.17708 46.5625 8.96875C46.9844 8.75521 47.4505 8.64844 47.9609 8.64844C48.7995 8.64844 49.4766 8.88542 49.9922 9.35938C50.5078 9.83333 50.7656 10.651 50.7656 11.8125V17H48.7344V11.7812C48.7344 11.224 48.612 10.8307 48.3672 10.6016C48.1224 10.3672 47.776 10.25 47.3281 10.25C46.9531 10.25 46.612 10.3542 46.3047 10.5625C45.9974 10.7708 45.7604 11.0547 45.5938 11.4141V17H43.5625ZM52.7812 17V5.05469H54.8125V9.875C55.0677 9.51042 55.4062 9.21615 55.8281 8.99219C56.25 8.76302 56.7474 8.64844 57.3203 8.64844C58.0859 8.64844 58.7161 8.89062 59.2109 9.375C59.7109 9.85417 59.9609 10.6432 59.9609 11.7422V17H57.9297V11.8359C57.9297 11.263 57.8021 10.8568 57.5469 10.6172C57.2917 10.3724 56.9401 10.25 56.4922 10.25C56.1016 10.25 55.763 10.3594 55.4766 10.5781C55.1901 10.7917 54.9688 11.0859 54.8125 11.4609V17H52.7812ZM65.8906 17V8.8125H67.8047L67.8594 9.78125H67.8984C68.138 9.44792 68.4688 9.17708 68.8906 8.96875C69.3125 8.75521 69.7786 8.64844 70.2891 8.64844C71.1276 8.64844 71.8047 8.88542 72.3203 9.35938C72.8359 9.83333 73.0938 10.651 73.0938 11.8125V17H71.0625V11.7812C71.0625 11.224 70.9401 10.8307 70.6953 10.6016C70.4505 10.3672 70.1042 10.25 69.6562 10.25C69.2812 10.25 68.9401 10.3542 68.6328 10.5625C68.3255 10.7708 68.0885 11.0547 67.9219 11.4141V17H65.8906ZM75.0859 19.2656L76.0312 17.9453C76.2344 18.1641 76.5495 18.3672 76.9766 18.5547C77.4089 18.7422 77.8828 18.8359 78.3984 18.8359C79.013 18.8359 79.5052 18.651 79.875 18.2812C80.25 17.9115 80.4375 17.3646 80.4375 16.6406V16.1016C80.224 16.4297 79.9219 16.6875 79.5312 16.875C79.1406 17.0573 78.6745 17.1484 78.1328 17.1484C77.0859 17.1484 76.2448 16.7682 75.6094 16.0078C74.974 15.2474 74.6562 14.2552 74.6562 13.0312V12.7812C74.6562 11.5521 74.9714 10.5573 75.6016 9.79688C76.237 9.03646 77.0807 8.65625 78.1328 8.65625C78.6589 8.65625 79.1302 8.76562 79.5469 8.98438C79.9688 9.20312 80.2734 9.47396 80.4609 9.79688H80.5L80.5547 8.8125H82.4688V16.5859C82.4688 17.8151 82.0964 18.7604 81.3516 19.4219C80.6068 20.0833 79.6589 20.4141 78.5078 20.4141C77.8047 20.4141 77.1562 20.3047 76.5625 20.0859C75.9688 19.8672 75.4766 19.5938 75.0859 19.2656ZM76.7266 13.1016C76.7266 13.8307 76.8828 14.4297 77.1953 14.8984C77.513 15.362 78.0026 15.5938 78.6641 15.5938C79.1016 15.5938 79.4714 15.4714 79.7734 15.2266C80.0807 14.9766 80.3021 14.6927 80.4375 14.375V11.4688C80.2969 11.1146 80.0729 10.8177 79.7656 10.5781C79.4583 10.3385 79.0833 10.2188 78.6406 10.2188C77.9948 10.2188 77.513 10.4531 77.1953 10.9219C76.8828 11.3906 76.7266 11.987 76.7266 12.7109V13.1016ZM84.5625 17V5.05469H86.5938V9.875C86.849 9.51042 87.1875 9.21615 87.6094 8.99219C88.0312 8.76302 88.5286 8.64844 89.1016 8.64844C89.8672 8.64844 90.4974 8.89062 90.9922 9.375C91.4922 9.85417 91.7422 10.6432 91.7422 11.7422V17H89.7109V11.8359C89.7109 11.263 89.5833 10.8568 89.3281 10.6172C89.0729 10.3724 88.7214 10.25 88.2734 10.25C87.8828 10.25 87.5443 10.3594 87.2578 10.5781C86.9714 10.7917 86.75 11.0859 86.5938 11.4609V17H84.5625ZM93.8203 17V8.8125H95.8594V17H93.8203ZM93.6328 6.45312C93.6328 6.13542 93.737 5.86979 93.9453 5.65625C94.1536 5.44271 94.4531 5.33594 94.8438 5.33594C95.2344 5.33594 95.5339 5.44271 95.7422 5.65625C95.9505 5.86979 96.0547 6.13542 96.0547 6.45312C96.0547 6.77083 95.9479 7.03906 95.7344 7.25781C95.526 7.47135 95.2292 7.57812 94.8438 7.57812C94.4531 7.57812 94.1536 7.47135 93.9453 7.25781C93.737 7.03906 93.6328 6.77083 93.6328 6.45312ZM97.5469 13.0312V12.7812C97.5469 11.526 97.9141 10.513 98.6484 9.74219C99.3828 8.96615 100.333 8.57812 101.5 8.57812C102.667 8.57812 103.578 8.9401 104.234 9.66406C104.891 10.388 105.219 11.3802 105.219 12.6406V13.3906H98.8828V12.0469H103.203V11.875C103.203 11.375 103.057 10.9531 102.766 10.6094C102.474 10.2656 102.057 10.0938 101.516 10.0938C100.875 10.0938 100.391 10.3333 100.062 10.8125C99.7396 11.2917 99.5781 11.9167 99.5781 12.6875V13.1094C99.5781 13.875 99.7526 14.4974 100.102 14.9766C100.451 15.4557 100.974 15.6953 101.672 15.6953C102.135 15.6953 102.534 15.5859 102.867 15.3672C103.206 15.1484 103.479 14.8932 103.688 14.6016L105.102 15.5469C104.841 16.0104 104.414 16.4089 103.82 16.7422C103.232 17.0703 102.523 17.2344 101.695 17.2344C100.388 17.2344 99.3698 16.849 98.6406 16.0781C97.9115 15.3021 97.5469 14.2865 97.5469 13.0312ZM102.016 4.80469L104.172 7.53125H102.641L101.477 6.29688L100.336 7.53125H98.8203L100.945 4.80469H102.016ZM100.508 19.3672C100.508 19.0651 100.607 18.8099 100.805 18.6016C101.003 18.3984 101.286 18.2969 101.656 18.2969C102.031 18.2969 102.318 18.3984 102.516 18.6016C102.714 18.8099 102.812 19.0651 102.812 19.3672C102.812 19.6693 102.711 19.9219 102.508 20.125C102.31 20.3333 102.026 20.4375 101.656 20.4375C101.286 20.4375 101.003 20.3333 100.805 20.125C100.607 19.9219 100.508 19.6693 100.508 19.3672ZM106.781 17V8.8125H108.688L108.742 9.79688H108.789C109.049 9.4375 109.383 9.15885 109.789 8.96094C110.201 8.75781 110.646 8.65625 111.125 8.65625C111.693 8.65625 112.182 8.77344 112.594 9.00781C113.01 9.23698 113.315 9.58854 113.508 10.0625H113.547C113.844 9.58854 114.221 9.23698 114.68 9.00781C115.143 8.77344 115.643 8.65625 116.18 8.65625C117.008 8.65625 117.669 8.90625 118.164 9.40625C118.659 9.90104 118.906 10.7318 118.906 11.8984V17H116.875V11.8125C116.875 11.2708 116.76 10.875 116.531 10.625C116.302 10.375 115.969 10.25 115.531 10.25C115.151 10.2448 114.818 10.349 114.531 10.5625C114.25 10.776 114.026 11.0625 113.859 11.4219V17H111.828V11.8281C111.828 11.276 111.711 10.875 111.477 10.625C111.247 10.375 110.911 10.25 110.469 10.25C110.094 10.25 109.766 10.3542 109.484 10.5625C109.203 10.7708 108.979 11.0573 108.812 11.4219V17H106.781ZM121.125 15.9922C121.125 15.6693 121.232 15.3932 121.445 15.1641C121.664 14.9297 121.979 14.8125 122.391 14.8125C122.797 14.8125 123.109 14.9297 123.328 15.1641C123.547 15.3932 123.656 15.6693 123.656 15.9922C123.656 16.3151 123.547 16.5938 123.328 16.8281C123.109 17.0573 122.797 17.1719 122.391 17.1719C121.979 17.1719 121.664 17.0573 121.445 16.8281C121.232 16.5938 121.125 16.3151 121.125 15.9922ZM121.125 9.77344C121.125 9.45052 121.232 9.17448 121.445 8.94531C121.664 8.71094 121.979 8.59375 122.391 8.59375C122.797 8.59375 123.109 8.71094 123.328 8.94531C123.547 9.17448 123.656 9.45052 123.656 9.77344C123.656 10.0964 123.547 10.375 123.328 10.6094C123.109 10.8385 122.797 10.9531 122.391 10.9531C121.979 10.9531 121.664 10.8385 121.445 10.6094C121.232 10.375 121.125 10.0964 121.125 9.77344Z" fill="#2A3467"/>
<path d="M133.844 17V15.9297L137.883 11.5312C138.419 10.9635 138.826 10.4557 139.102 10.0078C139.383 9.5599 139.523 9.07552 139.523 8.55469C139.523 8.02344 139.346 7.56771 138.992 7.1875C138.638 6.80208 138.148 6.60938 137.523 6.60938C136.898 6.60938 136.37 6.8151 135.938 7.22656C135.51 7.63281 135.297 8.20312 135.297 8.9375V9.01562H133.844V8.9375C133.844 7.89583 134.195 7.04427 134.898 6.38281C135.607 5.72135 136.482 5.39062 137.523 5.39062C138.555 5.39062 139.388 5.69531 140.023 6.30469C140.659 6.91406 140.977 7.63802 140.977 8.47656C140.977 9.21094 140.771 9.88021 140.359 10.4844C139.948 11.0833 139.443 11.7005 138.844 12.3359L135.664 15.7266H141.289V17H133.844ZM142.711 14.1484V14.0625H144.125V14.1484C144.125 14.7266 144.328 15.1823 144.734 15.5156C145.141 15.849 145.682 16.0156 146.359 16.0156C147.036 16.0156 147.591 15.7865 148.023 15.3281C148.456 14.8646 148.672 14.2109 148.672 13.3672C148.672 12.5234 148.456 11.8854 148.023 11.4531C147.596 11.0156 147.044 10.7969 146.367 10.7969C145.898 10.7969 145.482 10.8828 145.117 11.0547C144.758 11.2214 144.424 11.4609 144.117 11.7734L143.102 11.3047L143.68 5.625H149.539V6.92969H144.875L144.531 10.1797C144.786 10.0182 145.089 9.8776 145.438 9.75781C145.792 9.63281 146.18 9.57031 146.602 9.57031C147.581 9.57031 148.414 9.90365 149.102 10.5703C149.789 11.2318 150.133 12.1641 150.133 13.3672C150.133 14.5703 149.776 15.5156 149.062 16.2031C148.349 16.8906 147.448 17.2344 146.359 17.2344C145.203 17.2344 144.305 16.9427 143.664 16.3594C143.029 15.776 142.711 15.0391 142.711 14.1484ZM155.914 17V8.82812H157.203L157.258 9.88281H157.305C157.602 9.50781 157.964 9.21354 158.391 9C158.818 8.78125 159.292 8.67188 159.812 8.67188C160.635 8.67188 161.289 8.90625 161.773 9.375C162.263 9.84375 162.508 10.625 162.508 11.7188V17H161.086V11.7109C161.086 11.0547 160.938 10.5859 160.641 10.3047C160.349 10.0182 159.932 9.875 159.391 9.875C158.927 9.875 158.518 10 158.164 10.25C157.81 10.5 157.534 10.8229 157.336 11.2188V17H155.914ZM164.273 14.5938C164.273 13.7708 164.599 13.1276 165.25 12.6641C165.906 12.2005 166.742 11.9688 167.758 11.9688H169.617V11.3984C169.617 10.9036 169.49 10.5026 169.234 10.1953C168.979 9.88802 168.539 9.73438 167.914 9.73438C167.289 9.73438 166.841 9.86458 166.57 10.125C166.305 10.3802 166.172 10.6771 166.172 11.0156V11.0625H164.75V11.0156C164.75 10.3698 165.036 9.80729 165.609 9.32812C166.188 8.84375 166.969 8.60156 167.953 8.60156C168.932 8.60156 169.69 8.83594 170.227 9.30469C170.768 9.76823 171.039 10.4661 171.039 11.3984V15.125C171.039 15.4635 171.065 15.7839 171.117 16.0859C171.169 16.3828 171.242 16.6458 171.336 16.875V17H169.961C169.888 16.8698 169.82 16.7005 169.758 16.4922C169.701 16.2839 169.664 16.0755 169.648 15.8672C169.456 16.2057 169.143 16.5052 168.711 16.7656C168.284 17.026 167.734 17.1562 167.062 17.1562C166.281 17.1562 165.62 16.9375 165.078 16.5C164.542 16.0573 164.273 15.4219 164.273 14.5938ZM165.695 14.5234C165.695 14.9922 165.831 15.3594 166.102 15.625C166.372 15.8854 166.794 16.0156 167.367 16.0156C167.94 16.0156 168.458 15.8177 168.922 15.4219C169.385 15.026 169.617 14.6068 169.617 14.1641V12.9922H167.914C167.185 12.9922 166.633 13.1302 166.258 13.4062C165.883 13.6823 165.695 14.0547 165.695 14.5234ZM169.75 5.21094L170.484 5.625C170.302 6.14062 169.984 6.61458 169.531 7.04688C169.078 7.47917 168.526 7.69531 167.875 7.69531C167.286 7.69531 166.758 7.4974 166.289 7.10156C165.82 6.70052 165.479 6.20573 165.266 5.61719L166.07 5.21094C166.253 5.51302 166.497 5.79167 166.805 6.04688C167.117 6.30208 167.477 6.42969 167.883 6.42969C168.315 6.42969 168.685 6.30729 168.992 6.0625C169.305 5.81771 169.557 5.53385 169.75 5.21094ZM173.289 17V8.82812H174.578L174.633 9.88281H174.68C174.971 9.51302 175.323 9.21875 175.734 9C176.146 8.78125 176.604 8.67188 177.109 8.67188C177.656 8.67188 178.128 8.78125 178.523 9C178.924 9.21875 179.229 9.57292 179.438 10.0625H179.477C179.82 9.57292 180.198 9.21875 180.609 9C181.026 8.78125 181.505 8.67188 182.047 8.67188C182.891 8.67188 183.549 8.90625 184.023 9.375C184.503 9.84375 184.742 10.625 184.742 11.7188V17H183.312V11.7031C183.312 11.0469 183.172 10.5781 182.891 10.2969C182.615 10.0156 182.219 9.875 181.703 9.875C181.255 9.875 180.862 10 180.523 10.25C180.19 10.5 179.924 10.8229 179.727 11.2188V17H178.305V11.7031C178.305 11.0469 178.164 10.5781 177.883 10.2969C177.602 10.0156 177.203 9.875 176.688 9.875C176.24 9.875 175.846 10 175.508 10.25C175.174 10.5 174.909 10.8229 174.711 11.2188V17H173.289Z" fill="#2A3467"/>
</g>
<defs>
<clipPath id="clip0_1_7828">
<rect width="246" height="24" fill="white"/>
</clipPath>
</defs>
</svg>
