<svg width="36" height="36" viewBox="0 0 36 36" fill="none" xmlns="http://www.w3.org/2000/svg">
<rect width="36" height="36" rx="18" fill="white"/>
<path fill-rule="evenodd" clip-rule="evenodd" d="M21.6822 10.1692C21.644 9.88541 21.4026 9.66669 21.1105 9.66669C20.7919 9.66669 20.5336 9.92699 20.5336 10.2481V10.8906H15.4734V10.2481L15.4682 10.1692C15.43 9.88541 15.1886 9.66669 14.8965 9.66669C14.5779 9.66669 14.3196 9.92699 14.3196 10.2481V10.9051C11.9555 11.0679 10.5 12.5997 10.5 15.0713V22.0865C10.5 24.7392 12.1319 26.3331 14.7469 26.3331H21.253C23.8711 26.3331 25.4999 24.7658 25.4999 22.1452V15.0713C25.5075 12.5988 24.0567 11.0675 21.6874 10.905V10.2481L21.6822 10.1692ZM20.5336 12.0528V12.7991L20.5389 12.878C20.5771 13.1617 20.8184 13.3805 21.1105 13.3805C21.4291 13.3805 21.6874 13.1202 21.6874 12.7991V12.0699C23.4112 12.2134 24.3516 13.2514 24.346 15.0688V15.4056H11.6538V15.0706C11.6538 13.2543 12.5993 12.2141 14.3196 12.07V12.7991L14.3249 12.878C14.3631 13.1617 14.6045 13.3805 14.8965 13.3805C15.2152 13.3805 15.4734 13.1202 15.4734 12.7991V12.0528H20.5336ZM11.6538 16.5684V22.0858C11.6538 24.088 12.7612 25.1697 14.7468 25.1697H21.253C23.2454 25.1697 24.346 24.1106 24.346 22.1445L24.346 16.5684H11.6538ZM22.0009 19.016C22.0009 18.6949 21.7426 18.4346 21.424 18.4346L21.3386 18.4399C21.057 18.4784 20.84 18.7216 20.84 19.016C20.84 19.3371 21.0983 19.5974 21.424 19.5974L21.5023 19.5921C21.7839 19.5536 22.0009 19.3103 22.0009 19.016ZM18.0107 18.4346C18.3293 18.4346 18.5876 18.6949 18.5876 19.016C18.5876 19.3103 18.3706 19.5536 18.089 19.5921L18.0107 19.5974C17.685 19.5974 17.4267 19.3371 17.4267 19.016C17.4267 18.7216 17.6437 18.4784 17.9253 18.4399L18.0107 18.4346ZM15.167 19.016C15.167 18.6949 14.9087 18.4346 14.5901 18.4346L14.5047 18.4399C14.2231 18.4784 14.0061 18.7216 14.0061 19.016C14.0061 19.3371 14.2644 19.5974 14.583 19.5974L14.6684 19.5921C14.95 19.5536 15.167 19.3103 15.167 19.016ZM21.424 21.4473C21.7426 21.4473 22.0009 21.7076 22.0009 22.0287C22.0009 22.323 21.7839 22.5663 21.5023 22.6048L21.424 22.6101C21.0983 22.6101 20.84 22.3498 20.84 22.0287C20.84 21.7343 21.057 21.4911 21.3386 21.4526L21.424 21.4473ZM18.5876 22.0287C18.5876 21.7076 18.3293 21.4473 18.0107 21.4473L17.9253 21.4526C17.6437 21.4911 17.4267 21.7343 17.4267 22.0287C17.4267 22.3498 17.685 22.6101 18.0107 22.6101L18.089 22.6048C18.3706 22.5663 18.5876 22.323 18.5876 22.0287ZM14.5901 21.4473C14.9087 21.4473 15.167 21.7076 15.167 22.0287C15.167 22.323 14.95 22.5663 14.6684 22.6048L14.583 22.6101C14.2644 22.6101 14.0061 22.3498 14.0061 22.0287C14.0061 21.7343 14.2231 21.4911 14.5047 21.4526L14.5901 21.4473Z" fill="#00C5D7"/>
</svg>
