<svg width="36" height="36" viewBox="0 0 36 36" fill="none" xmlns="http://www.w3.org/2000/svg">
<rect width="36" height="36" rx="18" fill="white"/>
<path fill-rule="evenodd" clip-rule="evenodd" d="M20.4881 9.66663H15.512C12.9243 9.66663 11.3334 10.916 11.3334 13.3619V24.9424C11.3371 25.1774 11.3921 25.3984 11.4939 25.5978L11.5719 25.7265L11.6536 25.8312C12.0796 26.3307 12.7594 26.4686 13.3204 26.1697L17.9784 23.5529L22.6553 26.1642C22.864 26.2742 23.0805 26.3297 23.3007 26.3333C23.6698 26.3334 24.0149 26.1868 24.2693 25.926C24.5238 25.6651 24.6667 25.3113 24.6667 24.9424V13.2147C24.6667 10.8625 23.0402 9.66663 20.4881 9.66663ZM15.5119 10.8727H20.488C22.4583 10.8727 23.4899 11.6311 23.4899 13.2143V24.942C23.4899 24.9909 23.471 25.0379 23.4372 25.0725C23.4035 25.1071 23.3577 25.1265 23.31 25.1265C23.2796 25.1259 23.2405 25.1159 23.2052 25.0973L18.5362 22.4907C18.1875 22.2976 17.7693 22.2976 17.4223 22.4898L12.7663 25.105C12.6957 25.1425 12.5947 25.118 12.5409 25.0428L12.5097 24.991C12.5157 24.9996 12.5147 24.9892 12.5128 24.9714C12.5116 24.9602 12.5101 24.9461 12.5099 24.932L12.51 13.3615C12.51 11.6627 13.516 10.8727 15.5119 10.8727ZM21.4283 15.5337C21.4283 15.2006 21.1649 14.9305 20.8399 14.9305H15.1171L15.0372 14.936C14.75 14.9759 14.5287 15.2283 14.5287 15.5337C14.5287 15.8669 14.7921 16.1369 15.1171 16.1369H20.8399L20.9198 16.1314C21.207 16.0915 21.4283 15.8391 21.4283 15.5337Z" fill="#00C5D7"/>
</svg>
