<svg width="36" height="36" viewBox="0 0 36 36" fill="none" xmlns="http://www.w3.org/2000/svg">
<rect width="36" height="36" rx="18" fill="white"/>
<path fill-rule="evenodd" clip-rule="evenodd" d="M18.024 9.66673C14.1831 9.65368 11.0459 12.7095 10.9205 16.5345L10.9166 16.7719C10.9805 18.6467 11.6184 20.4339 12.7419 21.9064L13.0057 22.2507C14.0781 23.6143 15.3526 24.8111 16.7835 25.7976L17.1281 26.0295L17.1783 26.069C17.6688 26.4214 18.331 26.4214 18.8215 26.069L18.8633 26.0346C19.9988 25.2983 21.0458 24.433 21.9837 23.4561C23.8905 21.4377 25.0397 19.1761 25.0831 16.8792L25.0832 16.7939C25.0962 12.9433 22.0498 9.79641 18.2366 9.6706L18.024 9.66673ZM18.0197 10.9312C21.1684 10.942 23.725 13.4579 23.8199 16.5909L23.8226 16.8672C23.7861 18.7929 22.7778 20.7771 21.0721 22.5826C20.2024 23.4886 19.2272 24.2938 18.1696 24.9787L18.0991 25.0317C18.0421 25.0811 17.9577 25.0811 17.9007 25.0317L17.8322 24.98C16.2566 23.9513 14.8738 22.6525 13.7469 21.1431C12.8393 19.9535 12.3014 18.5312 12.1932 17.0474L12.1773 16.7499C12.1879 13.5935 14.6961 11.0292 17.8195 10.9339L18.0197 10.9312ZM17.9999 14.167C16.5095 14.167 15.3014 15.3789 15.3014 16.8738C15.3014 18.3687 16.5095 19.5806 17.9999 19.5806C19.4902 19.5806 20.6983 18.3687 20.6983 16.8738C20.6983 15.3789 19.4902 14.167 17.9999 14.167ZM17.9999 15.4315C18.794 15.4315 19.4377 16.0773 19.4377 16.8738C19.4377 17.6704 18.794 18.3161 17.9999 18.3161C17.2058 18.3161 16.562 17.6704 16.562 16.8738C16.562 16.0773 17.2058 15.4315 17.9999 15.4315Z" fill="#00C5D7"/>
</svg>
